<?xml version="1.0" standalone="no"?>
<!DOCTYPE svg PUBLIC "-//W3C//DTD SVG 20010904//EN"
 "http://www.w3.org/TR/2001/REC-SVG-20010904/DTD/svg10.dtd">
<svg version="1.0" xmlns="http://www.w3.org/2000/svg"
 width="100.000000pt" height="100.000000pt" viewBox="0 0 100.000000 100.000000"
 preserveAspectRatio="xMidYMid meet">
<metadata>
Created by potrace 1.16, written by Peter Selinger 2001-2019
</metadata>
<g transform="translate(0.000000,100.000000) scale(0.100000,-0.100000)"
fill="#000000" stroke="none">
<path d="M355 920 c-14 -27 -27 -50 -30 -50 -2 0 -27 14 -55 30 -28 17 -60 30
-72 30 -20 0 -21 -3 -14 -79 l6 -79 -62 -9 c-54 -7 -63 -11 -66 -30 -3 -17 6
-27 37 -43 31 -15 41 -26 41 -45 0 -22 4 -25 40 -25 l40 0 0 -45 c0 -40 -2
-45 -23 -45 -37 0 -47 -19 -47 -89 1 -68 10 -90 45 -108 12 -7 25 -30 32 -56
18 -66 69 -126 148 -174 60 -36 78 -43 125 -43 103 0 241 108 272 213 7 25 25
53 45 70 31 27 33 32 33 96 0 72 -10 91 -47 91 -21 0 -23 5 -23 45 l0 45 80 0
c72 0 80 2 80 19 0 13 -18 30 -55 51 -30 17 -55 32 -55 33 0 1 7 24 15 51 30
100 18 114 -70 76 -26 -11 -48 -20 -50 -20 -2 0 -7 21 -10 48 -15 113 -26 117
-111 42 -31 -27 -60 -50 -63 -50 -3 0 -32 23 -64 50 -32 28 -67 50 -78 50 -12
0 -27 -16 -44 -50z m121 -36 l64 -56 65 57 c36 32 68 56 70 53 3 -2 9 -35 14
-72 5 -38 11 -70 13 -71 2 -2 33 9 70 24 l66 28 -19 -66 c-21 -73 -22 -71 48
-112 l48 -29 -374 0 c-324 0 -372 2 -362 14 10 12 3 20 -39 44 -58 33 -62 30
43 47 l38 6 -6 57 c-4 31 -9 65 -11 75 -7 24 0 22 72 -18 l64 -36 27 56 c15
30 31 55 36 55 5 0 38 -25 73 -56z m154 -309 l0 -55 -130 0 -130 0 0 55 0 55
130 0 130 0 0 -55z m-385 -120 c9 -30 18 -55 20 -55 2 0 9 25 15 55 l12 56
180 -2 180 -2 51 -39 52 -39 9 41 c15 66 66 49 66 -22 0 -49 -18 -87 -46 -94
-12 -3 -25 -16 -28 -29 l-6 -23 -61 19 c-34 11 -64 17 -66 15 -3 -2 22 -12 54
-22 71 -22 73 -23 62 -51 -8 -22 -9 -22 -45 -7 -20 8 -38 13 -41 11 -2 -3 12
-11 31 -18 20 -7 36 -16 36 -21 0 -17 -64 -78 -103 -98 -23 -12 -53 -28 -67
-36 -14 -7 -36 -14 -50 -14 -14 0 -36 7 -50 14 -14 8 -44 24 -67 36 -39 20
-103 81 -103 98 0 5 16 14 36 21 19 7 33 15 31 18 -3 2 -21 -3 -41 -11 -36
-15 -37 -15 -47 11 -5 14 -8 27 -7 27 2 1 29 10 61 20 32 10 57 19 55 22 -3 2
-28 -3 -57 -11 -53 -16 -71 -14 -71 10 0 7 -10 15 -23 19 -29 7 -47 44 -47 94
0 41 14 62 42 62 13 0 22 -15 33 -55z"/>
</g>
</svg>
