<?xml version="1.0" standalone="no"?>
<!DOCTYPE svg PUBLIC "-//W3C//DTD SVG 20010904//EN"
 "http://www.w3.org/TR/2001/REC-SVG-20010904/DTD/svg10.dtd">
<svg version="1.0" xmlns="http://www.w3.org/2000/svg"
 width="64.000000pt" height="64.000000pt" viewBox="0 0 64.000000 64.000000"
 preserveAspectRatio="xMidYMid meet">
<metadata>
Created by potrace 1.16, written by Peter Selinger 2001-2019
</metadata>
<g transform="translate(0.000000,64.000000) scale(0.100000,-0.100000)"
fill="#000000" stroke="none">
<path d="M127 593 c-4 -3 -7 -17 -7 -30 0 -16 -6 -23 -20 -23 -16 0 -20 -7
-20 -30 0 -23 4 -30 20 -30 11 0 20 -4 20 -10 0 -5 -9 -10 -20 -10 -16 0 -20
-7 -20 -30 0 -23 4 -30 20 -30 11 0 20 -4 20 -10 0 -5 -9 -10 -20 -10 -16 0
-20 -7 -20 -30 0 -23 4 -30 20 -30 11 0 20 -4 20 -10 0 -5 -9 -10 -20 -10 -16
0 -20 -7 -20 -30 0 -23 4 -30 20 -30 11 0 20 -4 20 -10 0 -5 -9 -10 -20 -10
-16 0 -20 -7 -20 -30 0 -23 4 -30 20 -30 18 0 20 -7 20 -60 l0 -60 220 0 220
0 0 280 0 280 -213 0 c-118 0 -217 -3 -220 -7z m408 -253 l0 -235 -195 -3
-195 -2 -2 50 c-1 43 2 50 18 50 10 0 19 5 19 10 0 6 -9 10 -20 10 -16 0 -20
7 -20 30 0 23 4 30 20 30 11 0 20 5 20 10 0 6 -9 10 -20 10 -16 0 -20 7 -20
30 0 23 4 30 20 30 11 0 20 5 20 10 0 6 -9 10 -20 10 -16 0 -20 7 -20 30 0 23
4 30 20 30 11 0 20 5 20 10 0 6 -9 10 -20 10 -16 0 -20 7 -20 30 0 23 4 30 20
30 11 0 20 5 20 10 0 6 -9 10 -20 10 -23 0 -26 10 -8 28 9 9 62 12 198 10
l185 -3 0 -235z"/>
<path d="M260 440 l0 -60 100 0 100 0 0 60 0 60 -100 0 -100 0 0 -60z"/>
</g>
</svg>
