<?xml version="1.0" standalone="no"?>
<!DOCTYPE svg PUBLIC "-//W3C//DTD SVG 20010904//EN"
 "http://www.w3.org/TR/2001/REC-SVG-20010904/DTD/svg10.dtd">
<svg version="1.0" xmlns="http://www.w3.org/2000/svg"
 width="50.000000pt" height="50.000000pt" viewBox="0 0 50.000000 50.000000"
 preserveAspectRatio="xMidYMid meet">
<metadata>
Created by potrace 1.16, written by Peter Selinger 2001-2019
</metadata>
<g transform="translate(0.000000,50.000000) scale(0.100000,-0.100000)"
fill="#000000" stroke="none">
<path d="M173 475 c-3 -9 -22 -22 -41 -31 -55 -23 -69 -40 -102 -125 -26 -67
-30 -92 -30 -174 l0 -95 45 0 45 0 0 73 c0 39 5 79 10 87 7 10 10 -19 10 -92
l0 -108 140 0 140 0 0 108 c0 73 3 102 10 92 5 -8 10 -48 10 -87 l0 -73 45 0
45 0 0 95 c0 82 -4 107 -30 174 -33 85 -47 102 -102 125 -19 9 -38 22 -41 31
-5 11 -23 15 -77 15 -54 0 -72 -4 -77 -15z m-7 -90 c7 -41 27 -45 61 -13 l23
21 23 -21 c34 -32 54 -28 61 13 15 81 25 24 28 -160 l3 -195 -119 0 -118 0 7
133 c3 72 6 160 6 195 0 67 14 83 25 27z"/>
</g>
</svg>
