<?xml version="1.0" standalone="no"?>
<!DOCTYPE svg PUBLIC "-//W3C//DTD SVG 20010904//EN"
 "http://www.w3.org/TR/2001/REC-SVG-20010904/DTD/svg10.dtd">
<svg version="1.0" xmlns="http://www.w3.org/2000/svg"
 width="48.000000pt" height="48.000000pt" viewBox="0 0 48.000000 48.000000"
 preserveAspectRatio="xMidYMid meet">
<metadata>
Created by potrace 1.16, written by Peter Selinger 2001-2019
</metadata>
<g transform="translate(0.000000,48.000000) scale(0.100000,-0.100000)"
fill="#000000" stroke="none">
<path d="M70 346 c0 -14 6 -53 14 -88 8 -35 18 -92 21 -128 3 -36 8 -80 11
-97 l5 -33 104 0 105 0 6 39 c5 34 10 40 45 50 52 16 69 43 69 113 0 47 -4 59
-22 72 -12 9 -29 16 -38 16 -12 0 -15 9 -12 40 l4 40 -156 0 -156 0 0 -24z
m275 -36 c-6 -37 -5 -40 17 -40 37 0 68 -27 68 -59 0 -38 -26 -68 -75 -84 -36
-12 -40 -18 -43 -50 l-3 -37 -84 0 -83 0 -7 73 c-4 39 -13 106 -21 147 -8 41
-14 78 -14 83 0 4 57 7 126 7 l126 0 -7 -40z"/>
</g>
</svg>
